<svg id="visual" viewBox="0 0 900 600" width="900" height="600" xmlns="http://www.w3.org/2000/svg" xmlns:xlink="http://www.w3.org/1999/xlink" version="1.1"><rect width="900" height="600" fill="#582f2f"></rect><g><g transform="translate(638 304)"><path d="M0 -100.4L86.9 -50.2L86.9 50.2L0 100.4L-86.9 50.2L-86.9 -50.2Z" fill="none" stroke="#ffe135" stroke-width="4"></path></g><g transform="translate(48 7)"><path d="M0 -98L84.9 -49L84.9 49L0 98L-84.9 49L-84.9 -49Z" fill="none" stroke="#ffe135" stroke-width="4"></path></g><g transform="translate(765 477)"><path d="M0 -93L80.5 -46.5L80.5 46.5L0 93L-80.5 46.5L-80.5 -46.5Z" fill="none" stroke="#ffe135" stroke-width="4"></path></g><g transform="translate(159 583)"><path d="M0 -90L77.9 -45L77.9 45L0 90L-77.9 45L-77.9 -45Z" stroke="#ffe135" fill="none" stroke-width="4"></path></g><g transform="translate(292 419)"><path d="M0 -77L66.7 -38.5L66.7 38.5L0 77L-66.7 38.5L-66.7 -38.5Z" stroke="#ffe135" fill="none" stroke-width="4"></path></g><g transform="translate(528 57)"><path d="M0 -85L73.6 -42.5L73.6 42.5L0 85L-73.6 42.5L-73.6 -42.5Z" stroke="#ffe135" fill="none" stroke-width="4"></path></g><g transform="translate(763 39)"><path d="M0 -74L64.1 -37L64.1 37L0 74L-64.1 37L-64.1 -37Z" stroke="#ffe135" fill="none" stroke-width="4"></path></g></g></svg>