<svg id="visual" viewBox="0 0 900 600" width="900" height="600" xmlns="http://www.w3.org/2000/svg" xmlns:xlink="http://www.w3.org/1999/xlink" version="1.1"><rect width="900" height="600" fill="#ffe135"></rect><g><g transform="translate(747 563)"><path d="M0 -117.8L102.1 -58.9L102.1 58.9L0 117.8L-102.1 58.9L-102.1 -58.9Z" fill="none" stroke="#6b3e26" stroke-width="4"></path></g><g transform="translate(12 310)"><path d="M0 -85L73.6 -42.5L73.6 42.5L0 85L-73.6 42.5L-73.6 -42.5Z" fill="none" stroke="#6b3e26" stroke-width="4"></path></g><g transform="translate(594 90)"><path d="M0 -95L82.3 -47.5L82.3 47.5L0 95L-82.3 47.5L-82.3 -47.5Z" fill="none" stroke="#6b3e26" stroke-width="4"></path></g><g transform="translate(249 182)"><path d="M0 -81L70.1 -40.5L70.1 40.5L0 81L-70.1 40.5L-70.1 -40.5Z" stroke="#6b3e26" fill="none" stroke-width="4"></path></g><g transform="translate(375 486)"><path d="M0 -107L92.7 -53.5L92.7 53.5L0 107L-92.7 53.5L-92.7 -53.5Z" stroke="#6b3e26" fill="none" stroke-width="4"></path></g></g></svg>