<svg id="visual" viewBox="0 0 900 600" width="900" height="600" xmlns="http://www.w3.org/2000/svg" xmlns:xlink="http://www.w3.org/1999/xlink" version="1.1"><rect width="900" height="600" fill="#ffffff"></rect><g><g transform="translate(735 89)"><path d="M0 -71.4L61.9 -35.7L61.9 35.7L0 71.4L-61.9 35.7L-61.9 -35.7Z" fill="none" stroke="#ffe135" stroke-width="3"></path></g><g transform="translate(846 384)"><path d="M0 -47L40.7 -23.5L40.7 23.5L0 47L-40.7 23.5L-40.7 -23.5Z" fill="none" stroke="#ffe135" stroke-width="3"></path></g><g transform="translate(648 391)"><path d="M0 -28L24.2 -14L24.2 14L0 28L-24.2 14L-24.2 -14Z" stroke="#ffe135" fill="none" stroke-width="3"></path></g><g transform="translate(492 364)"><path d="M0 -67L58 -33.5L58 33.5L0 67L-58 33.5L-58 -33.5Z" stroke="#ffe135" fill="none" stroke-width="3"></path></g><g transform="translate(62 500)"><path d="M0 -62L53.7 -31L53.7 31L0 62L-53.7 31L-53.7 -31Z" stroke="#ffe135" fill="none" stroke-width="3"></path></g><g transform="translate(5 193)"><path d="M0 -62L53.7 -31L53.7 31L0 62L-53.7 31L-53.7 -31Z" stroke="#ffe135" fill="none" stroke-width="3"></path></g><g transform="translate(502 6)"><path d="M0 -43L37.2 -21.5L37.2 21.5L0 43L-37.2 21.5L-37.2 -21.5Z" stroke="#ffe135" fill="none" stroke-width="3"></path></g></g></svg>