<svg id="visual" viewBox="0 0 900 600" width="900" height="600" xmlns="http://www.w3.org/2000/svg" xmlns:xlink="http://www.w3.org/1999/xlink" version="1.1"><rect width="900" height="600" fill="#fffbc9"></rect><g><g transform="translate(168 224)"><path d="M0 -135.3L117.2 -67.7L117.2 67.7L0 135.3L-117.2 67.7L-117.2 -67.7Z" fill="none" stroke="#6b3e26" stroke-width="4"></path></g><g transform="translate(823 546)"><path d="M0 -46L39.8 -23L39.8 23L0 46L-39.8 23L-39.8 -23Z" fill="none" stroke="#6b3e26" stroke-width="4"></path></g><g transform="translate(344 430)"><path d="M0 -79L68.4 -39.5L68.4 39.5L0 79L-68.4 39.5L-68.4 -39.5Z" fill="none" stroke="#6b3e26" stroke-width="4"></path></g><g transform="translate(870 92)"><path d="M0 -89L77.1 -44.5L77.1 44.5L0 89L-77.1 44.5L-77.1 -44.5Z" stroke="#6b3e26" fill="none" stroke-width="4"></path></g><g transform="translate(631 300)"><path d="M0 -116L100.5 -58L100.5 58L0 116L-100.5 58L-100.5 -58Z" stroke="#6b3e26" fill="none" stroke-width="4"></path></g><g transform="translate(4 590)"><path d="M0 -75L65 -37.5L65 37.5L0 75L-65 37.5L-65 -37.5Z" stroke="#6b3e26" fill="none" stroke-width="4"></path></g></g></svg>