<svg id="visual" viewBox="0 0 900 600" width="900" height="600" xmlns="http://www.w3.org/2000/svg" xmlns:xlink="http://www.w3.org/1999/xlink" version="1.1"><rect width="900" height="600" fill="#ffe135"></rect><g><g transform="translate(550 485)"><path d="M0 -120.8L104.6 -60.4L104.6 60.4L0 120.8L-104.6 60.4L-104.6 -60.4Z" fill="none" stroke="#fffbc9" stroke-width="4"></path></g><g transform="translate(19 593)"><path d="M0 -80L69.3 -40L69.3 40L0 80L-69.3 40L-69.3 -40Z" fill="none" stroke="#fffbc9" stroke-width="4"></path></g><g transform="translate(97 160)"><path d="M0 -107L92.7 -53.5L92.7 53.5L0 107L-92.7 53.5L-92.7 -53.5Z" fill="none" stroke="#fffbc9" stroke-width="4"></path></g><g transform="translate(865 233)"><path d="M0 -110L95.3 -55L95.3 55L0 110L-95.3 55L-95.3 -55Z" stroke="#fffbc9" fill="none" stroke-width="4"></path></g><g transform="translate(552 125)"><path d="M0 -73L63.2 -36.5L63.2 36.5L0 73L-63.2 36.5L-63.2 -36.5Z" stroke="#fffbc9" fill="none" stroke-width="4"></path></g><g transform="translate(296 353)"><path d="M0 -67L58 -33.5L58 33.5L0 67L-58 33.5L-58 -33.5Z" stroke="#fffbc9" fill="none" stroke-width="4"></path></g></g></svg>